<?xml version="1.0" encoding="UTF-8"?>
<svg xmlns="http://www.w3.org/2000/svg" viewBox="0 0 1146.39 1115.3">
  <g id="_10" data-name="10">
    <path d="M247.81,2.12l-42.08,43.98c-4.07,4.26-9.15,7.42-14.76,9.21l-61.68,19.63s-24.34,7.18-27.54-12.77c-3.19-19.95,4.79-19.16,15.16-32.33,10.38-13.17,17.16-27.72,17.16-27.72" style="fill: none; stroke: #477153; stroke-linecap: square; stroke-linejoin: round; stroke-width: 3px;"/>
  </g>
  <g id="_9" data-name="9">
    <path d="M311.66,2.12l-84.69,85.24c-2.58,2.6-5.64,4.68-9.01,6.12l-14.14,6.06c-2.07.89-4.23,1.55-6.43,1.99l-60.16,11.89c-2.11.42-4.16,1.04-6.14,1.87l-86.02,35.87-11,4.92c-5.11,2.28-9.64,5.67-13.27,9.92l-18.68,21.88" style="fill: none; stroke: #477153; stroke-linecap: square; stroke-linejoin: round; stroke-width: 3px;"/>
  </g>
  <g id="_8" data-name="8">
    <path d="M354.36,2.12l-2.51,3.33c-5.21,6.9-11.51,12.9-18.67,17.75l-11.55,7.83-21.73,14.37c-2.8,1.86-5.49,3.89-8.03,6.09l-3.29,2.84c-1.11.96-2.13,2.03-3.03,3.19l-43.5,56.16c-3.03,3.91-7.08,6.92-11.7,8.68l-46.01,17.61-24.36,8.5c-2.06.72-4.02,1.7-5.83,2.91l-33.42,22.47c-1.22.82-2.54,1.5-3.92,2.01l-2.89,1.06c-1.73.64-3.55,1.01-5.39,1.11l-43.06,2.34c-3.74.2-7.43.96-10.94,2.25l-7.12,2.62c-4.71,1.73-9.02,4.38-12.69,7.8l-17.99,16.77-14.62,13.97" style="fill: none; stroke: #477153; stroke-linecap: square; stroke-linejoin: round; stroke-width: 3px;"/>
  </g>
  <g id="_7" data-name="7">
    <path d="M383.49,2.12l-9.86,15.51c-.61.95-1.24,1.89-1.9,2.81l-4.2,5.84c-3.96,5.52-8.83,10.33-14.4,14.23l-7.67,5.37c-2.58,1.81-5.27,3.46-8.05,4.94l-12.18,6.51c-4.47,2.39-8.35,5.76-11.35,9.85l-6.87,9.39c-.37.5-.71,1.01-1.03,1.54l-9.25,15.16c-.69,1.14-1.46,2.23-2.29,3.27h0c-2.08,2.59-4.56,4.84-7.34,6.66l-14.81,9.65c-.1.06-.19.13-.28.2l-8.69,6.94c-2.33,1.86-4.18,4.25-5.39,6.97l-4.55,10.23c-2.04,4.59-5.85,8.16-10.56,9.9l-.21.08-22.14,7.38c-3.82,1.59-1.7.68-5.38,2.53l-6.3,2.44c-4.36,1.47-5.43,1.61-9.72,2.91l-10.66,4.3c-2.54.97-8.58,2.65-12,3.92l-58.7,30.72c-3.17,1.64-6.6,2.7-10.15,3.12l-15.58,1.89c-3.58.43-7.09,1.38-10.4,2.81l-26,11.24c-.88.38-1.75.8-2.6,1.24l-19.3,10.16c-1.45.76-2.85,1.62-4.18,2.56l-27.38,19.33" style="fill: none; stroke: #477153; stroke-linecap: square; stroke-linejoin: round; stroke-width: 3px;"/>
  </g>
  <g id="_6" data-name="6">
    <path d="M420.61,2.12l-59.46,64.44-57.07,58.66-23.52,23.13c-1.05,1.13-8.08,7.62-9.86,8.92l-6.37,3.22c-3.05,1.73-10.65,5.31-14.16,5.31l-47.66,11.7c-7.6,1.16-12.28,2.31-16.94,6.48l-24.37,21.85-27.24,23.79c-.73.64-1.51,1.21-2.34,1.71l-3.38,2.06c-1.7,1.04-3.56,1.77-5.51,2.17l-53.51,10.91c-2.79.57-5.51,1.45-8.11,2.64l-30.31,13.83c-4.55,2.08-8.64,5.04-12.04,8.72h0c-2.94,3.18-6.4,5.83-10.24,7.84l-6.43,3.36" style="fill: none; stroke: #477153; stroke-linecap: square; stroke-linejoin: round; stroke-width: 3px;"/>
  </g>
  <g id="_5" data-name="5">
    <path d="M458.12,2.12l-23.81,20.46c-4.07,3.5-7.83,7.36-11.21,11.54l-24.05,29.65-21.15,25.54-24.3,31.45c-1.89,2.44-3.99,4.71-6.28,6.78l-20.08,18.1c-3.2,2.88-6.11,6.07-8.7,9.52l-.5.66c-4.2,5.6-9.67,10.14-15.95,13.23l-16.42,8.1c-1.57.77-3.2,1.4-4.88,1.89l-18.27,5.26c-1.83.53-3.71.88-5.61,1.04l-43.39,3.78c-3.73.33-7.36,1.36-10.71,3.04l-2.23,1.12c-9.11,4.58-15.21,13.54-16.13,23.7l-1.14,12.48c-1.28,14.09-12.38,25.29-26.46,26.7l-21.32,2.14-1.99.27-53.86,9.15c-1.35.23-2.67.55-3.98.96-6.43,2.04-26.94,8.57-37.8,12.02-4.55,1.44-8.67,3.96-12.03,7.35l-23.78,23.99" style="fill: none; stroke: #477153; stroke-linecap: square; stroke-linejoin: round; stroke-width: 3px;"/>
    <path d="M679.21,2.12l25.51,16.83c3.29,2.17,7.09,3.44,11.02,3.68l31.01,1.93c5.03.31,9.98-1.45,13.67-4.88l6.31-5.85c.18-.16.36-.32.54-.48l1.36-1.13c3.01-2.5,4.75-6.2,4.75-10.11h0" style="fill: none; stroke: #477153; stroke-linecap: square; stroke-linejoin: round; stroke-width: 3px;"/>
    <path d="M1144.31,437.82l-10.02,2-40.63,9.69c-1.91.46-3.86.69-5.83.69h-30.23c-1.55,0-3.1-.14-4.63-.41l-44.4-7.97-21.23-3.22c-3.37-.51-6.81-.36-10.13.45l-9,2.2c-1.56.38-3.07.9-4.53,1.56l-33.81,15.2c-2.21.99-4.54,1.67-6.93,2.02-7.59,1.12-24.72,3.68-26.59,4.3-1.35.45-7.25.4-12.17.26-4.49-.12-8.69-2.23-11.48-5.76l-15.59-19.75c-.66-.83-1.21-1.74-1.65-2.7l-6.73-14.69c-.24-.53-.52-1.05-.83-1.54l-10.31-16.39c-1.58-2.5-3.58-4.71-5.92-6.52l-11.34-8.76c-3.93-3.04-6.88-7.17-8.47-11.88l-4.31-12.78c-1.98-5.88-1.72-12.29.73-17.99l5.24-12.17c1.56-3.62,3.95-6.83,6.98-9.36l10.18-8.51c4.05-3.39,8.69-6.02,13.67-7.77l7.7-2.7c5.22-1.83,9.61-5.48,12.38-10.27h0c3.33-5.78,3.38-12.88.12-18.7l-3.9-6.98c-.87-1.56-1.96-2.98-3.22-4.24l-9.91-9.78c-3.27-3.23-5.26-7.54-5.58-12.13l-.02-.23c-.62-8.65,6.58-13.45,12.95-19.34,3.23-2.99,8.43-4.71,10.11-4.7,10.96.1,23.09-.52,26.79-.07.37.04.72.1,1.08.17l26.02,4.74,39.47,7.47c3.19.6,6.48.51,9.63-.29l16.87-4.25c3.47-.87,6.68-2.57,9.36-4.94l13.77-12.17c.74-.65,1.51-1.27,2.31-1.84l28.85-20.82c.98-.71,1.92-1.48,2.81-2.3l23.74-22.12c2.69-2.51,5.75-4.58,9.08-6.15l20.69-9.77c2.01-.95,4.11-1.7,6.27-2.24l38.3-9.57" style="fill: none; stroke: #477153; stroke-linecap: square; stroke-linejoin: round; stroke-width: 3px;"/>
  </g>
  <g id="_4" data-name="4">
    <path d="M813.94,2.12l-5.99,12.6c-2.34,4.92-3.21,10.41-2.49,15.81l.72,5.45c.65,4.94,1.75,9.81,3.27,14.55l1.28,3.98c2.14,6.67,3.43,13.58,3.84,20.57l1.05,17.92c.21,3.64.74,7.26,1.57,10.81l1.8,7.66c1.94,8.28,5.52,16.09,10.52,22.96l8.15,11.21c.16.21.29.45.39.69h0c3.71,8.65,10.95,15.28,19.89,18.2l3.12,1.02c3.15,1.03,6.07,2.66,8.61,4.79l16.45,13.81c1.36,1.15,2.82,2.17,4.36,3.08l17.44,10.23c2.47,1.45,5.09,2.61,7.83,3.45l19.44,6.03c3.58,1.11,7.31,1.68,11.07,1.68h0c7.65,0,15.12-2.35,21.39-6.73l52.64-36.78c2.64-1.85,5.07-3.98,7.23-6.37l11.21-12.37c3.1-3.42,6.85-6.18,11.04-8.11l9.22-4.25,41.97-17.42c.22-.09.45-.18.68-.25l38.41-12.26" style="fill: none; stroke: #477153; stroke-linecap: square; stroke-linejoin: round; stroke-width: 3px;"/>
    <path d="M498.03,2.12l-17.56,15.35-18.36,15.96-11.1,9.41c-4.82,4.09-9.2,8.68-13.06,13.69l-12.95,16.81-22.1,27.17c-1.49,1.84-2.79,3.83-3.85,5.94l-15,29.66c-.37.72-.76,1.43-1.18,2.13l-19.69,32.72c-3.63,6.03-9.29,10.56-15.96,12.79l-14.36,4.79c-2.15.72-4.38,1.18-6.63,1.39l-41.78,3.84c-1.82.17-3.63.5-5.39,1.01l-19.95,5.68c-7.25,2.07-13.44,6.83-17.3,13.32l-5.71,9.6c-3.84,6.47-5.07,14.15-3.44,21.49l.66,2.97c1.62,7.28.35,14.9-3.54,21.26h0c-5.23,8.55-14.53,13.77-24.55,13.77h-42.6c-1.07,0-2.14.06-3.2.17l-80.86,8.82c-1.88.2-3.73.59-5.54,1.15l-31.69,9.82c-5.5,2.83-19.73,11.51-27.49,16.96-1.54,1.08-2.87,2.42-3.96,3.95l-7.57,10.63" style="fill: none; stroke: #477153; stroke-linecap: square; stroke-linejoin: round; stroke-width: 3px;"/>
    <path d="M1144.31,487.31l-11.18,2.37c-5.06,1.07-9.98,2.77-14.62,5.05l-14.15,6.94-8.72,4.46c-5.55,2.84-11.69,4.32-17.92,4.32h0c-5.59,0-11.11-1.19-16.21-3.49l-18.99-8.58c-1.61-.73-3.27-1.34-4.97-1.84l-12.34-3.6c-2.83-.83-5.75-1.32-8.7-1.46l-14.67-.72c-3.48-.17-6.91-.82-10.21-1.94l-19.89-6.72c-3.88-1.31-7.96-1.98-12.06-1.98h-14.86c-5.44,0-10.81,1.18-15.74,3.45l-16.15,7.43c-6.11,2.81-11.36,7.21-15.2,12.73l-7.89,11.35c-5.6,8.06-14.26,13.46-23.96,14.95l-.31.05c-7.7,1.18-15.57-.17-22.42-3.86h0c-6.72-3.62-12.12-9.3-15.39-16.2l-2.82-5.94c-4.32-9.11-5.72-19.33-4.02-29.27l.3-1.76c1.77-10.36.16-21.02-4.58-30.4l-.91-1.8c-3.95-7.81-9.84-14.47-17.11-19.34l-11.96-8.02c-3.03-2.03-6.27-3.73-9.66-5.07-9.72-3.83-30.07-11.85-31.9-12.47-.95-.32-5.5-2.26-10.68-4.5-10.98-4.75-19.05-14.44-21.74-26.1h0c-.49-2.12-1.17-4.2-2.02-6.21l-1.86-4.4c-1.53-3.61-3.62-6.97-6.18-9.94l-12.82-8.16c-1.6-1.02-2.9-2.42-3.79-4.08-1.81-3.37-4.59-9.33-4.46-13.84h0c0-8.09-3.85-15.71-10.36-20.51l-3.07-2.26c-1.23-.91-2.58-1.66-4-2.22l-1.06-.42c-9.01-3.6-13.47-13.4-11-22.78,0-.03.01-.05.02-.08.26-1.25,5.98-4,11.44-6.37,6.25-2.71,13.23-3.23,19.81-1.47l24.63,6.56c1.19.32,2.39.57,3.6.77l33.73,5.53c2.02.33,4.06.5,6.1.5h21.8c1.11,0,2.23.11,3.32.31l10.34,1.98c4.68.89,9.52-.14,13.43-2.86h0c5.73-3.99,8.57-10.98,7.26-17.84l-2.37-12.4c-.46-2.43-.42-4.93.14-7.33l3.51-15.09c.58-2.5,1.6-4.88,3.01-7.03h0c4.47-6.81,4.77-15.53.79-22.63l-1.38-2.45c-1.02-1.82-2.3-3.48-3.79-4.94l-23.34-22.74c-3.66-3.57-6.62-7.78-8.74-12.43l-18.51-40.59c-.69-1.51-1.28-3.05-1.78-4.63l-4.55-14.35c-1.75-5.5-5.05-10.37-9.52-14.02h0c-1.29-1.06-2.67-2-4.11-2.83l-27.48-15.65c-1.25-.71-2.53-1.36-3.85-1.93l-36.66-16.08c-4.53-1.99-8.67-4.78-12.22-8.23l-6.18-6.02c-2.67-2.6-5.68-4.83-8.95-6.62l-31.79-17.44" style="fill: none; stroke: #477153; stroke-linecap: square; stroke-linejoin: round; stroke-width: 3px;"/>
    <path d="M1142.89,925.63l-7.66,56.12c-.51,3.73-1.37,7.4-2.58,10.96l-13.16,38.91c-2.5,7.4-6.44,14.23-11.6,20.1l-23.72,27.02-34.72,34.44" style="fill: none; stroke: #477153; stroke-linecap: square; stroke-linejoin: round; stroke-width: 3px;"/>
    <path d="M2.12,531.21l11.39,10.44c.82.75,1.48,1.64,1.97,2.64l4.77,9.85c.58,1.19.88,2.5.88,3.83h0c0,2.75-1.29,5.34-3.49,7l-15.52,11.73" style="fill: none; stroke: #477153; stroke-linecap: square; stroke-linejoin: round; stroke-width: 3px;"/>
    <path d="M1139.06,204.63l-32.72,17.56-17.56,9.38-13.88,7.99c-2.95,1.7-5.48,4.04-7.42,6.84l-2.71,3.93c-1.54,2.23-2.56,4.77-3.01,7.44l-.41,2.46c-.72,4.3-2.93,8.2-6.25,11.02h0c-3.5,2.97-5.76,7.13-6.35,11.68l-1.08,8.3-.07.6c-.72,6.47,1.35,12.95,5.7,17.8h0c1.16,1.3,2.47,2.46,3.9,3.46l15.79,11.08c.55.39,1.08.8,1.6,1.23l15.49,13.05c1,.84,2.04,1.61,3.14,2.32l10.41,6.72c4.27,2.75,9.15,4.4,14.21,4.81l17.15,1.36c.19.01.37.04.56.08l4.49.94" style="fill: none; stroke: #477153; stroke-linecap: square; stroke-linejoin: round; stroke-width: 3px;"/>
  </g>
  <g id="_3" data-name="3">
    <path d="M862.63,2.12l-11.25,50.62c-.21.96-.4,1.93-.55,2.9l-.93,5.83c-1.08,6.8-1.02,13.73.17,20.51l2.5,14.18c1.88,10.67,6.53,20.66,13.48,28.97l11.22,13.42c.35.42.72.83,1.1,1.22l14,14.29c3.27,3.34,7.28,5.88,11.69,7.43l11.34,3.97c3.89,1.36,8.01,1.92,12.12,1.64l11.08-.75c4.11-.28,8.13-1.39,11.8-3.27l30.35-15.51,47.49-25.14,69.74-36.01c7.01-3.62,34.3-20.97,42.05-33.03h0" style="fill: none; stroke: #477153; stroke-linecap: square; stroke-linejoin: round; stroke-width: 3px;"/>
    <path d="M1142.89,807.77l-45.94,117.86-41.11,76.49-27.38,47.33c-.37.63-.81,1.22-1.32,1.74l-23.52,23.9c-.3.31-.59.63-.86.97l-29.53,37.13" style="fill: none; stroke: #477153; stroke-linecap: square; stroke-linejoin: round; stroke-width: 3px;"/>
    <path d="M2.12,613.02l6.68-2.61c2.34-.91,10.23-7.81,10.23-7.81,2.42-2.33,5.41-3.97,8.67-4.78l12.95-3.19c5.23-1.29,9.97-4.06,13.66-7.99l4.1-4.37c5.53-5.89,8.61-13.68,8.61-21.76v-7.99c0-1.7-.38-3.37-1.1-4.9l-4.78-10.1c-2.94-6.21-7.62-11.43-13.48-15.02l-10.27-6.28c-.21-.13-.41-.26-.6-.4l-21.23-15.55c-.55-.4-1.05-.86-1.49-1.38l-9.86-11.53c-1.36-1.59-2.11-3.61-2.11-5.71l.2-33.33-.2-28.69,7.4-46.97c.21-2.03.25-4.07.13-6.1-.1-1.79.11-3.58.64-5.28l1.76-5.7c2.21-7.13,7.27-13.03,13.98-16.3l24.59-11.96c1.66-.81,3.42-1.39,5.24-1.73l22.91-4.31c.73-.14,1.48-.24,2.22-.29l32.96-2.57c.25-.02.5-.03.75-.03,10.65-.02,17.11.29,31,3.68.96.23,1.83.73,2.81.88l26.83,4.34c1.61.26,3.19.69,4.69,1.33,1.39.59,2.83,1.08,4.3,1.46l54.28,13.85c7.36,1.88,15.16.85,21.78-2.88l26.21-14.75c4.18-2.35,7.73-5.69,10.33-9.72l2.41-3.73c7.26-11.26,6.04-25.99-2.98-35.9l-5.78-6.34c-1.09-1.19-2.02-2.52-2.79-3.94l-7.53-14.05c-2.19-4.09-2.86-8.82-1.89-13.36h0c1.94-9.03,9.92-15.48,19.16-15.48h21.1c1.12,0,2.23-.1,3.34-.29l43.37-7.49c1.09-.19,2.16-.44,3.22-.74l37.2-10.82c3.6-1.05,6.98-2.77,9.93-5.09h0c7.8-6.09,12.02-15.69,11.26-25.55l-2.87-37.03c-.45-5.8.64-11.62,3.16-16.87l6.43-13.4c1.91-3.98,4.6-7.54,7.9-10.46l39.04-34.55c.7-.62,1.42-1.21,2.17-1.77l31.75-23.63c12.08-8.99,26.74-13.85,41.81-13.85h21.09c8.46,0,16.81,1.99,24.36,5.82l27.13,13.74,45.1,25.14,23.44,11.86c6.29,3.18,11.4,8.3,14.59,14.59l17.45,34.52,22.48,46.92c3.94,8.23,3.86,17.81-.22,25.97l-4.32,8.64c-3.07,6.14-8.19,11.03-14.48,13.8l-24.67,10.9c-1.74.77-3.55,1.37-5.4,1.79l-56.99,12.92c-1.98.45-4,.69-6.02.73l-43.33.74c-.63.01-1.25.04-1.88.09-6.6.49-36.4,1.24-48.28,3.32-7.96,1.4-12.72,6.39-20.55,11.32-5.46,3.44-9.9,8.28-12.87,14.01l-1.71,3.3c-3.15,6.07-2.79,13.35.94,19.08h0c2.82,4.34,7.29,7.34,12.38,8.31,11.69,2.21,32.4,6.22,34.69,7.37,2.71,1.35,38.99,8.4,50.45,10.6,2.31.45,4.59,1.04,6.82,1.79l.73.24c16.99,5.66,31.13,17.72,39.39,33.61.74,1.42,1.29,2.43,1.55,2.83.82,1.24,1.23,6.91,1.42,12.15.24,6.35,2.51,12.46,6.49,17.42l7.79,9.7c3.46,4.31,8.06,7.56,13.27,9.38l41.69,14.58c.62.22,1.24.46,1.85.72l35.04,14.96c5.04,2.15,9.62,5.25,13.49,9.13h0c8.01,8.02,12.51,18.9,12.51,30.24v12.08c0,3.71-.7,7.39-2.06,10.84l-8.49,21.52c-.47,1.19-1.12,2.31-1.93,3.31l-8.18,10.13c-3.5,4.33-3.75,10.44-.63,15.05h0c1.87,2.76,4.76,4.67,8.03,5.32l38.67,7.62c.76.15,1.52.27,2.29.36l38.31,4.46c8.96,1.04,18.05-.03,26.52-3.12l35.62-13.01c1.42-.52,2.79-1.16,4.1-1.92l12.07-6.99c1.31-.76,2.56-1.63,3.73-2.6l3.6-2.98c5.59-4.63,12.79-6.84,20.01-6.13h0c3.44.34,6.79,1.32,9.86,2.91l2.53,1.31c2.97,1.53,5.62,3.6,7.84,6.1l9.6,10.81c1.48,1.66,2.83,3.43,4.21,5.18,1.78,2.25,4.04,4.09,6.63,5.39l14.28,7.14c7.21,3.6,15.16,5.48,23.22,5.48h3.57c2.72,0,5.41-.56,7.9-1.66l18.97-8.32,28.33-13.97,43.95-23.94" style="fill: none; stroke: #477153; stroke-linejoin: round; stroke-width: 3px;"/>
    <path d="M1140.04,223.78c-.98.42-13.88,7.46-17.54,12.57-2.85,3.98-10.66,16.3-14.4,22.19-.9,1.42-2.09,2.64-3.49,3.58l-3.37,2.26c-10.46,7-21.36,22.92-9.47,32.04h0s26.87,14.4,26.87,14.4c.71.38,1.37.83,1.99,1.33l19.41,16" style="fill: none; stroke: #477153; stroke-linecap: square; stroke-linejoin: round; stroke-width: 3px;"/>
    <path d="M664.69,568.61c-7.86,2.64-32.67,12.36-36.54,13.88-.35.14-.67.28-1,.45l-31.38,15.93c-4.93,2.5-9.05,6.35-11.88,11.09l-3.71,6.2c-4.36,7.29-5.34,16.11-2.68,24.18l1.23,3.73c.98,2.97,2.42,5.76,4.28,8.27l7.48,10.11c3.38,4.57,8.03,8.06,13.36,10.04l8.83,3.28c10.27,3.81,21.47,4.33,32.05,1.49l5.34-1.43c3.82-1.03,7.52-2.48,11.01-4.33l34.99-18.52c.52-.27,1.01-.59,1.49-.94l16.81-12.47c4.35-3.22,5.89-9.02,3.72-13.98l-5.9-13.48c-1.07-2.45-1.27-5.2-.54-7.78l4.33-15.47c.12-.44.27-.87.44-1.29l.43-1.03c2.61-6.34-.81-13.56-7.37-15.53-3.8-1.14-7.33-2.28-8.6-2.91-2.79-1.4-26.8-.37-33.09-.07-1.05.05-2.08.24-3.07.57Z" style="fill: none; stroke: #477153; stroke-linecap: square; stroke-linejoin: round; stroke-width: 3px;"/>
  </g>
  <g id="_2" data-name="2">
    <path d="M706.66,182.17h0c3.29-8.15,2.27-17.4-2.71-24.63l-10.29-14.93c-.05-.08-.1-.15-.15-.23l-19.54-33.72c-.23-.39-.53-.74-.88-1.02l-14.72-11.54c-.2-.16-.42-.29-.65-.4l-57.12-27.54-26.56-14.1c-3.78-2.01-8-3.06-12.28-3.06h-5.04c-7.84,0-15.27,3.51-20.24,9.57l-1.21,1.47c-.07.09-.15.19-.21.28l-13.67,20.5c-2.51,3.77-5.59,7.14-9.12,9.98l-14.89,12.01c-2.99,2.41-6.4,4.26-10.06,5.44l-19,6.14c-5.83,1.88-9.36,7.79-8.27,13.82h0c.31,1.71.99,3.34,1.98,4.77l9.84,14.19c3.8,5.48,9.07,9.78,15.2,12.41l12.92,5.54c1.89.81,3.69,1.8,5.39,2.95l23.86,16.24c1.54,1.05,3.19,1.92,4.93,2.6l43.49,16.99c1.69.66,3.42,1.22,5.18,1.66l35.74,9.09c5.98,1.52,12.22,1.77,18.31.72l22.67-3.89c12.86-2.21,24.84-7.95,34.61-16.59l5.58-4.93c3.03-2.68,5.4-6.03,6.92-9.79Z" style="fill: none; stroke: #477153; stroke-linecap: square; stroke-linejoin: round; stroke-width: 3px;"/>
    <path d="M910.12,2.12l-1.86,17.8c-.36,3.4-1.21,6.73-2.54,9.89l-7.23,17.17c-.23.55-.49,1.09-.78,1.61l-9.76,17.94c-1.43,2.64-2.19,5.59-2.19,8.59v11.32c0,4.83,1.94,9.46,5.4,12.84l3.39,3.32c2.22,2.18,4.97,3.74,7.97,4.54l24.88,6.61c.71.19,1.41.41,2.09.67l23.93,8.97c2.49.94,5.14,1.41,7.8,1.41h13.35c.65,0,1.3-.09,1.92-.26l9.15-2.52c.98-.27,1.89-.74,2.67-1.39l54.47-44.81c.41-.34.83-.66,1.26-.98l42.64-30.91c.14-.1.28-.21.41-.32l12.76-6.59c1.69-.87,3.32-1.84,4.9-2.89l.19-.13c10.35-6.92,17.77-17.43,20.84-29.5l.61-2.41" style="fill: none; stroke: #477153; stroke-linecap: square; stroke-linejoin: round; stroke-width: 3px;"/>
    <path d="M2.12,1024.47l2.15-4.7c1.13-2.45,2.45-4.81,3.97-7.04l5.44-7.99c3.86-5.67,8.88-10.46,14.73-14.05l2.37-1.45c4.19-2.57,7.74-6.07,10.37-10.22l.05-.08c1.89-2.99,2.08-6.75.5-9.91h0c-.64-1.29-1.56-2.42-2.69-3.32l-2.21-1.76c-3.76-2.99-6.93-6.66-9.34-10.82l-.25-.43c-2.17-3.73-3.58-7.86-4.16-12.13l-.38-2.82c-.49-3.62-.37-7.29.34-10.88l1.55-7.77c.89-4.47,2.7-8.7,5.32-12.43h0c4.64-6.64,6.68-14.75,5.73-22.79l-.47-3.98c-.02-.19-.04-.39-.05-.58l-1.14-18.59c-.03-.45-.09-.9-.17-1.34l-5.8-29.39c-.04-.18-.08-.36-.12-.55l-4.49-17.59c-.15-.6-.25-1.21-.29-1.83l-2.33-34.59-2.39-22.35-6.39-29.53-3.16-19.99c-.29-1.82-.19-3.68.28-5.46h0c.83-3.15,2.78-5.88,5.48-7.68l2.17-1.44c2.83-1.89,4.83-4.79,5.59-8.1l2.01-8.8,8.03-22.68c.76-2.16,1.88-4.17,3.3-5.96l9.76-12.28c.31-.38.64-.74,1.01-1.07l19.01-17.07,18.63-15.52c1.93-1.6,4.17-2.78,6.59-3.44l14.95-4.1c1.15-.32,2.27-.75,3.34-1.29l16.79-8.57c.24-.12.48-.26.7-.41l18.8-12.66c.28-.19.54-.39.78-.62l6.18-5.64c1.65-1.5,2.45-3.72,2.14-5.92l-.06-.47c-.9-6.49-4.94-12.13-10.81-15.06h0c-2.76-1.38-5.81-2.1-8.9-2.1h-6.6c-7.8,0-15.5-1.82-22.48-5.31l-1.3-.65c-8.16-4.08-14.83-10.63-19.07-18.71l-10.5-20.03-11.31-17.26c-2.54-3.87-4.17-8.27-4.76-12.86l-3.88-29.74-2.7-15.89c-.59-3.49-.71-7.04-.36-10.57l.95-9.5c.28-2.84.89-5.64,1.8-8.35.37-1.08.72-2.17.98-3.29l2.74-11.5c1.17-4.92,3.05-9.66,5.77-13.93,4.95-7.78,11.77-14.43,20.82-14.1l3.3-.07c.41-.13,32.85.96,35.47,1.16,7.78.61,10.59,1.21,21.76,8.04.29.17.6.28.88.47l33.93,23.66c.76.53,1.48,1.1,2.17,1.71l13.16,11.7c3.39,3.01,7.33,5.34,11.61,6.85l21.94,7.73c.84.3,1.66.62,2.48.98l28.11,12.39c3.55,1.56,7.33,2.53,11.19,2.85l20.31,1.69c8.05.67,15.6,4.18,21.3,9.91l.96.97c7.82,7.85,19.01,11.03,29.92,9.07,3.4-.61,6.15-.34,6.95-.61,3.01-1.02,9.16-4.03,14.69-6.86,7.12-3.65,13-9.32,16.89-16.31l3.86-6.95c1.58-2.84,3.49-5.47,5.7-7.85l9.84-10.6c5.15-5.55,10.89-10.52,17.12-14.83l4.73-3.27c4.53-3.14,8.64-6.84,12.23-11.03l3.21-3.74c7.02-8.19,15.99-14.49,26.08-18.3h0c9.51-3.6,19.6-5.44,29.77-5.44h26.41c3.23,0,6.45.36,9.61,1.06l18.98,4.26c3.29.74,6.49,1.86,9.53,3.33l29.19,14.14c5.12,2.48,9.73,5.89,13.6,10.06l14.38,15.46c2.46,2.65,4.66,5.52,6.56,8.59l3.92,6.31c5.05,8.13,12.1,14.84,20.48,19.47l17.79,9.83,64.89,27.36c1.25.53,2.43,1.21,3.52,2.03l21.28,16.09c5.94,4.49,8.1,12.41,5.28,19.3l-5.48,13.36c-1.65,4.03-4.83,7.24-8.85,8.9-9.49,3.93-26.02,12.2-28.34,12.82-4.89,1.3-47.47,5.53-47.47,5.53l-73.82,12.07-45.39,6.75-29.27,9.3c-3.43,1.09-6.67,2.71-9.6,4.8l-24.73,17.67c-3.07,2.19-5.76,4.87-7.96,7.93l-5.57,7.75c-4.65,6.47-6.92,14.36-6.41,22.31l1.07,16.87c.37,5.76,2.18,11.34,5.26,16.23l10,15.84c.92,1.46,1.95,2.85,3.08,4.16l15.9,18.37c3.2,3.7,7.48,6.31,12.24,7.46l33.77,8.16c1.48.36,2.91.85,4.29,1.49l25.9,11.9c2.35,1.08,4.5,2.54,6.37,4.32l17.1,16.25c3.27,3.11,7.37,5.21,11.81,6.05l3.55.67c5.76,1.09,11.73-.01,16.72-3.1l15.27-9.43c2-1.24,3.8-2.76,5.35-4.54,5.13-5.88,17.03-19.57,18.28-21.46,1.61-2.41,20.11-24.14,24.14-26.55s30.57-23.33,30.57-23.33l30.83-28.16,5.38-26.6c.53-2.62,2-4.95,4.15-6.54,5.61-4.16,16.94-11.92,23.33-11.92,8.73,0,28.84,1.59,37.69,4.82s24.94,6.45,40.23,13.69c15.29,7.24,47.47,13.68,47.47,13.68l49.41,6.56,34.94,12.38c2.23.79,4.58,1.19,6.94,1.19h3.49c3.23,0,6.41-.75,9.3-2.19l37.72-18.86c10.2-5.1,20.99-8.94,32.12-11.42h0s38.01-6.91,38.01-6.91c3.36-.61,6.55-1.9,9.4-3.78l6.51-4.32" style="fill: none; stroke: #477153; stroke-linecap: square; stroke-linejoin: round; stroke-width: 3px;"/>
    <path d="M1142.89,731.14l-46.34,114.54-19.95,45.89-4.39,11.57-15.56,24.74-28.73,51.48-25.34,38.5c-1.42,2.05-4.33,7.23-5.39,9.63h0c-2.56,4.67-7.03,10.38-10.13,12.69l-22.31,17.6c-.18.14-.37.28-.54.43l-20.39,17.04c-5.52,4.61-9.53,10.78-11.5,17.7l-5.76,20.23" style="fill: none; stroke: #477153; stroke-linecap: square; stroke-linejoin: round; stroke-width: 3px;"/>
  </g>
  <g id="_1" data-name="1">
    <path d="M621.74,185.88l-20.61-1.79c-4.55-.4-8.93-1.9-12.75-4.39l-17.12-11.13c-5.85-3.8-10.41-9.29-13.08-15.73l-.44-1.07c-2.52-6.08-3.42-12.72-2.6-19.25l.59-4.77c.36-2.88,1.93-5.48,4.31-7.14h0c3.51-2.44,7.77-3.56,12.02-3.16l20.39,1.9c2.18.2,4.23,1.1,5.86,2.55l11.92,10.63c.49.44.94.92,1.34,1.45l15.01,19.76c.5.66,1.09,1.26,1.73,1.78l14.51,11.68c.59.47,1.13.99,1.64,1.54l3.32,3.64c2.52,2.76,2.81,6.88.71,9.97h0c-1.5,2.2-3.99,3.52-6.65,3.52h-20.09Z" style="fill: none; stroke: #477153; stroke-linecap: square; stroke-linejoin: round; stroke-width: 3px;"/>
    <path d="M969.18,2.12l-2.16.39c-7.98,1.43-15.38,5.1-21.35,10.57l-4.75,4.35c-3.49,3.19-6.42,6.95-8.68,11.1l-4.42,8.12c-2.99,5.5-4.74,11.59-5.12,17.84l-.84,13.81c-.37,6.07,1.49,12.07,5.24,16.87h0c2.73,3.49,6.33,6.19,10.45,7.82l10.35,4.11c5.42,2.15,11.5,1.95,16.76-.56l16.88-8.04,23.73-10.03c.54-.23,1.1-.43,1.67-.6h0c2.74-.83,5.3-2.16,7.48-4,3.63-3.06,6.95-6.8,10.08-9.15l19.86-17.25c3.71-3.23,6.83-7.08,9.2-11.39l1.37-2.49c3.46-6.28,5.8-13.12,6.92-20.2l1.16-7.35" style="fill: none; stroke: #477153; stroke-linecap: square; stroke-linejoin: round; stroke-width: 3px;"/>
    <path d="M853.91,1113.18l23.15-26.46,20.6-26.22c3.8-4.84,8.38-9,13.55-12.33l20.12-12.94,24.34-20.75,31.93-37.91,6.78-8.78,46.69-118.93,27.02-60.22c.61-1.36,1.34-2.65,2.17-3.88l31.71-46.43c.37-.54.76-1.06,1.17-1.57l11.77-14.64c2.61-3.25,4.38-7.1,5.13-11.21l2.83-15.45c.27-1.49.41-3.01.41-4.53h0c0-8.09-3.89-15.68-10.46-20.4l-9.09-6.53c-5.6-4.03-12.62-5.57-19.39-4.26l-6.9,1.33c-2.15.41-4.23,1.1-6.2,2.06l-21.78,10.54-26.4,17.48c-2.04,1.35-4.44,2.07-6.88,2.07h-51.72l-47.19-3.64-21.7-3.45c-5.21-.83-9.96-3.47-13.41-7.46l-6.17-7.12c-2.98-3.45-6.95-5.91-11.36-7.04-7.81-2-14.13-2.23-21.36-5.2-4.74-1.94-11.26-13.13-15.29-15.56-2.87-1.74-23.83-1.01-35.55-.44-5.09.25-9.93,2.21-13.75,5.59l-31.17,27.54-40.23,32.45-30.57,41.83-28.52,27.05c-1.89,1.8-4.07,3.26-6.45,4.34l-14.4,6.55c-5.49,2.5-11.74,2.78-17.44.8l-10.29-3.58c-2.62-.91-5.06-2.28-7.21-4.05l-18.97-15.6c-4.06-3.34-8.75-5.81-13.79-7.28l-36.48-10.61c-2.75-.8-5.41-1.9-7.92-3.29l-49.93-27.6c-5.47-3.02-10.51-6.75-14.99-11.1l-15.45-14.97c-4.47-4.33-8.11-9.43-10.76-15.06l-6.58-14.02c-5.7-12.14-7.92-25.63-6.41-38.96h0c1.13-9.91,4.29-19.48,9.28-28.11l10.12-17.49,29.32-49.12c1.88-3.15,4.42-5.87,7.44-7.97l6.48-4.5c5.31-3.69,11.81-5.24,18.21-4.37l38.67,5.29c1.54.21,3.09.33,4.65.36l42.52.74c1.04.02,2.07-.03,3.1-.16l64.42-7.59,59.53-4.79h0c14.16-3.83,6.49-15.34,1.25-21.88l-5.7-7.12c-1.83-2.28-4.26-4.01-7.02-4.99l-35.67-12.59c-.76-.27-1.49-.6-2.19-1l-47.22-26.99c-3.46-1.97-7.23-3.32-11.16-3.96-14.05-2.3-48.4-7.87-51.59-7.87h-44.08c-2.76,0-5.5.54-8.06,1.59l-41.18,16.95s-29.25,10.62-31.65,12.37c-10.89,7.93-12.23,13.83-11.79,22.18.18,3.5-4.52,13.78-8.61,22-3.51,7.04-10.37,11.8-18.19,12.65-13.03,1.41-32.22,3.42-35.95,3.44-4.16.02-38.25-11.03-45.05-15.16-2.07-1.26-8.31-7.39-14.03-13.21-7.42-7.55-16.58-13.13-26.7-16.23-8.85-2.71-18.36-5.54-19.61-5.54-2.41,0-25.7,2.86-36-1.24-6.39-2.54-16.65-22.89-21.22-32.54-1.59-3.35-4.06-6.19-7.15-8.23l-22.45-14.78c-1.21-.8-2.35-1.7-3.41-2.7l-10.78-10.24c-7.04-6.69-17.37-8.6-26.34-4.86h0c-5.9,2.46-10.6,7.11-13.12,12.98l-1.28,2.98c-1.31,3.05-1.98,6.34-1.98,9.67v13.18c0,2.21.3,4.41.89,6.54l1.95,7.04c1.52,5.5,4.91,10.29,9.58,13.56l15.4,10.78c.88.62,1.8,1.17,2.75,1.67l16.8,8.74c1.15.6,2.34,1.1,3.56,1.51l5.61,1.87c5.32,1.77,10.1,4.88,13.88,9.02l1.78,1.95c.56.61,1.06,1.27,1.5,1.97l10.21,16.1c.17.27.34.55.49.84l23.12,42.71,28.19,42.64c2.09,3.17,4.89,5.8,8.18,7.7l8.75,5.05c4.65,2.69,8.29,6.83,10.36,11.78l4.74,11.38c2.24,5.37,2.49,11.37.7,16.91l-7.36,22.86c-.84,2.62-2.12,5.08-3.78,7.27l-11.6,15.33c-5.22,6.89-13.68,10.52-22.27,9.55l-41.34-4.69c-.95-.11-1.91-.14-2.87-.09-3.51.18-9.94.27-13.37-.08-1.43-.15-40.31-7.98-40.31-7.98l-19.57-7.66c-10.7-4.19-22.8-2.71-32.17,3.93l-4.13,2.93-18.51,18.79c-5.12,5.19-8.67,11.72-10.25,18.84l-.1.45c-.44,2-.45,4.06,0,6.06l5.72,26.1,5.2,42c.25,2.05.87,4.04,1.82,5.87l25.26,48.75c1.06,2.04,1.39,4.38.94,6.64l-6.7,33.85c-.13.65-.19,1.31-.19,1.97v26.88c0,6.53,2.03,12.9,5.8,18.23l.78,1.1c4.5,6.35,6.49,14.15,5.59,21.88l-.85,7.32c-.36,3.06-1.16,6.05-2.38,8.87l-7.39,17.06c-1.55,3.58-3.75,6.84-6.48,9.61l-18.23,18.49c-3.27,3.32-3.86,8.44-1.43,12.41l7.19,11.77c1.19,1.95,1.69,4.25,1.41,6.52l-1.96,16.05-4.79,42.02" style="fill: none; stroke: #477153; stroke-linecap: square; stroke-linejoin: round; stroke-width: 3px;"/>
  </g>
  <g id="_0" data-name="0">
    <path d="M752.94,1113.18l18.04-21.83c1-1.21,2.23-2.2,3.61-2.93l23.48-12.28c.24-.13.49-.24.74-.34l28.38-11.67c9.03-3.71,16.56-10.35,21.37-18.85l18.11-31.98,5.28-9.92c2.98-5.6,8.28-9.6,14.48-10.94l14.09-3.03c5.05-1.09,9.74-3.43,13.65-6.81l10.6-9.18c.64-.55,1.23-1.17,1.76-1.83l9.02-11.27c.91-1.13,1.91-2.18,2.99-3.14l22.98-20.31c1.92-1.7,3.36-3.86,4.19-6.29l22.88-66.94,15.52-54.61c.16-.58.29-1.16.38-1.76l2.64-17.49c.28-1.84.34-3.71.19-5.56l-2.26-27.8c-.2-2.42-1.16-4.72-2.75-6.57l-8.54-9.92c-.92-1.06-2.04-1.92-3.31-2.52h0c-5.72-2.71-15.9-1.25-21.68-.09-2.73.55-5.27,1.74-7.46,3.47l-18.91,14.96c-1.28,1.01-2.79,1.71-4.39,2.03h0c-15.03,3.01-30.14-4.82-36.36-18.83l-1.71-3.85c-1.15-2.58-3.02-4.78-5.39-6.31l-12.63-8.18c-1.15-.75-2.41-1.33-3.73-1.72l-45.3-13.57c-.7-.21-1.42-.37-2.15-.47l-43.44-6.11c-4.55-.64-9.2-.07-13.46,1.66l-28,11.36c-7.49,3.04-14.3,7.55-20.02,13.25l-28.33,28.25-39.42,34.59-11.54,9.4c-2.99,2.44-6.53,4.1-10.32,4.84l-26.6,5.22c-1.49.29-3,.44-4.52.44h-7.62c-5.55,0-10.92-1.97-15.16-5.55l-18.64-15.75c-1.42-1.2-2.99-2.23-4.66-3.07l-21.98-10.99c-.84-.42-1.7-.79-2.58-1.1l-41.33-14.81-43.43-17.7-23.29-12.98c-10.92-6.08-19.24-15.93-23.42-27.71l-7.97-22.43c-1.59-4.47-4.52-8.34-8.41-11.07l-5.95-4.19c-6.38-4.49-11.21-10.84-13.82-18.19l-9.81-27.56c-1.97-5.53-5.98-10.09-11.22-12.75l-7.07-3.59c-2.61-1.32-5.65-1.52-8.41-.55l-10.32,3.64c-3.91,1.38-6.87,4.64-7.86,8.67l-1.77,7.21c-.44,1.79-.66,3.63-.66,5.47v7.81c0,2.4.38,4.79,1.12,7.07l8.22,25.35c.21.64.39,1.3.54,1.96l2.24,9.79c1.03,4.51.68,9.23-1.02,13.53l-11.1,28.1-22.53,34.49-27.9,38.64c-2.28,3.15-5.33,5.66-8.86,7.29l-.93.43c-5.24,2.42-11.21,2.73-16.68.89l-28.94-9.77c-.92-.31-1.81-.68-2.68-1.1l-16.01-7.81c-1.27-.62-2.59-1.15-3.94-1.59l-3.69-1.19c-.4,0-12.89-4.21-15.23-4.57-8.87-1.35-10.96-2.38-14.65-6.6l-3.23-3.69c-2.07-2.36-3.72-5.07-4.82-8.01-3.13-8.4-4.4-16.05-4.4-16.05-.75-3.18-2.79-5.91-5.61-7.54l-21.15-12.21c-1.8-1.04-3.85-1.59-5.94-1.59h-25.9c-3.12,0-6.14,1.13-8.5,3.18h0c-3.42,2.97-5.04,7.52-4.26,11.98.89,5.15,1.93,11.29,1.93,11.98,0,1.2,7.58,23.51,7.58,23.51l3.9,11.71c1.89,5.69,5.22,10.8,9.66,14.84l10.79,9.81,4.09,4.09c3.13,3.13,4.26,7.73,2.93,11.95l-2.23,7.1-5.53,20.74c-.56,2.1-.61,4.31-.14,6.44l1.7,7.66c.51,2.28,1.59,4.38,3.15,6.12l10.76,11.99c.56.62,1.17,1.19,1.83,1.69l18.29,14.07c.98.75,2.05,1.37,3.2,1.83l21.19,8.55c1.21.49,2.49.8,3.79.92l14.14,1.35c5.23.5,9.34,4.68,9.75,9.92l1.69,21.67h0c0,9.93,5.11,19.17,13.52,24.45l4.14,2.6c1.77,1.11,3.24,2.64,4.29,4.44h0c1.78,3.07,2.15,6.76,1.02,10.12l-5.65,16.83c-.76,2.26-1.92,4.38-3.42,6.23l-15.05,18.6c-.29.36-.62.7-.97,1l-13.12,11.3c-.48.41-.99.78-1.54,1.09l-76.84,43.69c-2.42,1.37-4.25,3.58-5.15,6.21l-2.33,6.77c-.44,1.27-.65,2.61-.62,3.96l.36,16.44" style="fill: none; stroke: #477153; stroke-linecap: square; stroke-linejoin: round; stroke-width: 3px;"/>
  </g>
  <g id="_-1" data-name="-1">
    <path d="M670.33,1113.18l14.72-19.09c.3-.39.64-.73,1.03-1.03l33.34-25.89,18.91-16.03c3.06-2.59,6.59-4.58,10.39-5.84l32.53-10.84c1.61-.54,3.17-1.2,4.67-1.99l6.64-3.49c4.64-2.43,8.59-5.99,11.51-10.34l33.79-50.51c.32-.48.68-.93,1.06-1.36l5.72-6.26c4.23-4.62,9.66-7.97,15.69-9.67l15.4-4.34c10.36-2.92,18.69-10.62,22.41-20.71l.06-.16,39.35-63.48c1.48-2.39,2.5-5.03,3.01-7.8l3.17-17.19c1.08-5.89-.22-11.97-3.62-16.9l-3.54-5.12c-5.89-8.54-16.85-11.95-26.55-8.28h0s-11.34,2.71-11.34,2.71c-5.94,1.42-12.18-.4-16.42-4.79l-11.67-12.09c-2.61-2.7-4.26-6.18-4.71-9.9l-1.24-10.2c-.79-6.51-5.18-12.01-11.34-14.23l-27.54-9.91c-1.75-.63-3.58-.97-5.44-1.02-7.25-.18-26.29-.57-30.18.07-3.25.54-25.05,6.18-38.99,9.81-7.58,1.98-14.31,6.38-19.16,12.53l-10.75,13.64c-.96,1.22-2.08,2.3-3.32,3.22l-27.55,20.34-50.77,20c-1.55.61-3.15,1.05-4.79,1.32l-25.12,4.14c-4.36.72-8.81.66-13.15-.17l-33.23-6.36c-4.24-.81-8.17-2.77-11.36-5.67l-42.81-38.8c-2.5-2.27-5.46-3.97-8.67-4.99l-28.1-8.91-28.82-7.24h-36.1c-8.78,0-17.05,4.09-22.38,11.07l-25.34,33.18-50.33,40.74c-.24.19-.48.38-.73.56l-21.57,15.58c-4.4,3.18-10.08,4.01-15.2,2.23h0c-2.47-.86-4.7-2.28-6.51-4.15l-34.43-35.59c-2.08-2.15-4.69-3.69-7.57-4.48l-45.83-12.55-20.75-5.99h-24.44c-4.57,0-8.74,2.63-10.71,6.75h0c-.76,1.6-1.16,3.35-1.16,5.12v8.82c0,2.63.87,5.18,2.48,7.26l9.35,12.11c1.14,1.48,2.58,2.71,4.23,3.61l25.66,14.03c1.18.65,2.45,1.11,3.77,1.38l11.58,2.38,41.9,9.77,35.18,12.08c5.76,1.98,9.99,6.95,11.01,12.95l5.29,31.05-11.17,28.33-11.57,22.02c-.53,1.01-1.21,1.93-2.03,2.73l-23.3,22.94c-.41.4-.78.83-1.11,1.29l-20.26,28.04-24.74,32.33-42.7,47.21" style="fill: none; stroke: #477153; stroke-linecap: square; stroke-linejoin: round; stroke-width: 3px;"/>
  </g>
  <g id="_-2" data-name="-2">
    <path d="M219.47,1113.18l31.65-90.75c.45-1.3,1.04-2.54,1.75-3.71l17.29-28.46c.53-.87,1.16-1.66,1.88-2.37l12.1-11.83c3.38-3.31,7.61-5.61,12.23-6.66l1.5-.34c5.91-1.34,12.07-1.22,17.92.37l38.42,10.43c5.67,1.54,11.51,2.32,17.38,2.32h0c9.17,0,18.24-1.9,26.64-5.58l2.84-1.24c8.92-3.91,16.82-9.83,23.07-17.3h0c3.18-3.8,5.31-8.38,6.17-13.26l2.7-15.45c.12-.69.29-1.37.51-2.04l3.32-10.19c2.23-6.83,3.54-13.93,3.89-21.11l2.29-47.11c.34-6.9,4.54-13.02,10.86-15.81l19.01-8.38c2.32-1.02,4.83-1.55,7.36-1.55h13.91c7.85,0,15.54,2.21,22.19,6.39l22.83,14.33c1.05.66,2.19,1.18,3.38,1.54l40.74,12.39c1.61.49,3.3.69,4.99.58l54.46-3.49c1.73-.11,3.42-.54,4.99-1.27l55.55-25.66,53.25-38.34c4.61-3.32,10.14-5.1,15.82-5.1h29.91c8.22,0,16.11,3.26,21.94,9.06l2.37,2.36c7.41,7.38,10.61,18,8.51,28.24l-2.15,10.52c-.61,2.97-.42,6.04.53,8.91l1.5,4.49c2.12,6.37,7.74,10.92,14.41,11.68l14.94,1.7c5.93.67,18.49,8.57,19.3,21.57v9.99c0,2.8-.36,5.6-1.26,8.25-.65,1.91-1.53,3.71-2.74,5.52-.65.97-1.47,1.81-2.42,2.48l-13.83,9.72-5.63,3.1c-10.18,4.19-19.98,3.53-31.4,2.93l-7.86-1.09c-4.38-1.18-9.07-.15-12.55,2.77l-2.72,2.28c-2.7,2.27-14.33,11.7-15.89,14.86l-20.1,40.91c-.19.39-.36.79-.51,1.2l-1.63,4.56c-1.33,3.73-4.5,6.5-8.37,7.33l-20.77,4.43c-1.92.41-3.71,1.31-5.18,2.61l-25.29,22.36-35.12,33.12-15.12,12.24c-1.09.88-2.32,1.56-3.65,2l-6.33,2.11c-.82.27-1.67.46-2.54.54l-36.23,3.59c-4.19.41-7.82,3.05-9.52,6.9l-11.22,25.42" style="fill: none; stroke: #477153; stroke-linecap: square; stroke-linejoin: round; stroke-width: 3px;"/>
  </g>
  <g id="_-3" data-name="-3">
    <path d="M268.16,1113.18l20.17-23.52c1.15-1.34,1.78-3.05,1.78-4.82v-28.45s6.21-34.93,7.18-40.19c.08-.46.13-.91.15-1.38l.32-9.94c.05-1.59.46-3.18,1.33-4.51.62-.94,1.4-1.71,2.27-1.91l3.67-1.12c.3-.09.6-.17.91-.24,6.07-1.28,11.41-.57,17.5.9l82.06,16.34c2.57.62,5.27.47,7.76-.43l14.94-5.41,40.31-24.74,23.27-13.14c.97-.55,2.03-.95,3.12-1.18l33.87-7.23,50.26-11.78c.55-.13,1.08-.32,1.58-.58l11.22-5.76c1.77-.91,3.07-2.54,3.55-4.47l2.83-11.33s5.82-23.9,9.19-26.31,45.2-25.74,45.2-25.74l34.86-19.43c2.48-1.38,5.13-2.43,7.89-3.11,9.15-2.26,30.53-7.58,33.68-8.84,4.02-1.61,24.94-21.72,32.98-24.94,8.05-3.22,15.29-4.83,22.53,0,7.24,4.83,5.63,21.72,6.44,27.35.8,5.63-2.41,24.14-6.44,31.38s-39.56,49.64-39.56,49.64l-17.34,19.34c-4.67,5.21-8.25,8.41-12.08,13.88l-12.02,23.81c-3.12,6.19-8.44,10.98-14.92,13.45l-20.27,7.73-43.99,15.16c-2.32.8-4.52,1.93-6.52,3.35l-10.31,7.32c-1.23.87-2.51,1.65-3.85,2.34l-51.6,26.55c-.98.5-1.98.97-2.99,1.4l-8.76,3.68c-6.39,2.68-12.22,6.53-17.21,11.33l-18.65,17.97c-4.57,4.4-8.16,9.72-10.53,15.61l-.79,1.97" style="fill: none; stroke: #477153; stroke-linecap: square; stroke-linejoin: round; stroke-width: 3px;"/>
  </g>
  <g id="_-4" data-name="-4">
    <path d="M604.72,999.48l-30.96-5.83c-.2-.04-.4-.06-.6-.06h-35.61l-38.71,6.39-15.66,3.36c-.73.16-1.42.44-2.05.84l-17.76,11.23c-5.2,3.29-7.52,9.68-5.63,15.53h0c1.03,3.19,3.2,5.89,6.1,7.56l13.11,7.56c2.05,1.18,4.38,1.81,6.74,1.81h22.32c1.33,0,2.66-.14,3.96-.41l32.05-6.69c1.53-.32,3.02-.82,4.43-1.5l38.58-18.53,16.2-8.1c3.77-1.88,6.14-5.73,6.14-9.94h0c0-1.57-1.12-2.92-2.66-3.21Z" style="fill: none; stroke: #477153; stroke-linecap: square; stroke-linejoin: round; stroke-width: 3px;"/>
    <path d="M323.43,1113.18l4.58-27.27c1.39-8.29,6.57-15.46,14-19.4l2.64-1.4c3.89-2.06,8.23-3.14,12.63-3.14h0c7.67,0,14.98,3.26,20.1,8.97l16.85,18.78c1.97,2.19,4.6,3.68,7.49,4.24l22.51,4.35c5.28,1.02,10.04,3.82,13.5,7.93l5.83,6.93" style="fill: none; stroke: #477153; stroke-linecap: square; stroke-linejoin: round; stroke-width: 3px;"/>
    <path d="M711.31,871.41l-20.5,16.56c-5.13,4.15-7.28,10.96-5.46,17.3h0c1.17,4.08,3.88,7.55,7.55,9.68l10.47,6.07c4.95,2.87,11.03,2.96,16.06.23,5.88-3.18,13.03-7.09,14.41-8.01,1.92-1.28,18.16-22.51,24.67-31.06,1.74-2.29,2.68-5.08,2.68-7.96v-6.61c0-7.27-5.9-13.15-13.18-13.16-3.1,0-5.83.06-6.93.27-3.22.6-29.77,16.69-29.77,16.69Z" style="fill: none; stroke: #477153; stroke-linecap: square; stroke-linejoin: round; stroke-width: 3px;"/>
  </g>
  <g id="Rectangle">
    <rect id="Inner_Rectangle" data-name="Inner Rectangle" x="181.12" y="188.4" width="781.04" height="737.23" rx="17.88" ry="17.88" style="fill: #fff; stroke: #477153; stroke-miterlimit: 10; stroke-width: 3px;"/>
  </g>
  <g id="Jayden_Inniss" data-name="Jayden Inniss">
    <text transform="translate(222.27 730.02)" style="fill: #304a35; font-family: Anybody-Medium, Anybody; font-size: 145.11px; font-variation-settings: &apos;wdth&apos; 100, &apos;wght&apos; 500; font-weight: 500;"><tspan x="0" y="0" style="letter-spacing: -.06em;">J</tspan><tspan x="80.83" y="0" style="letter-spacing: -.1em;">A</tspan><tspan x="165.14" y="0">YDEN</tspan><tspan x="0" y="145.11">INNISS</tspan></text>
  </g>
</svg>