<svg width="17" height="16" viewBox="0 0 17 16" fill="none" xmlns="http://www.w3.org/2000/svg">
<path id="Arrow 1" d="M1.36115 6.68237C0.808868 6.68235 0.361136 7.13005 0.361115 7.68234C0.361094 8.23462 0.808792 8.68235 1.36108 8.68237L1.36115 6.68237ZM16.2746 8.39005C16.6652 7.99954 16.6652 7.36637 16.2747 6.97583L9.91097 0.61163C9.52046 0.221091 8.88729 0.221067 8.49675 0.611577C8.10621 1.00209 8.10619 1.63525 8.4967 2.02579L14.1533 7.68286L8.49627 13.3395C8.10573 13.73 8.10571 14.3632 8.49622 14.7537C8.88673 15.1443 9.51989 15.1443 9.91043 14.7538L16.2746 8.39005ZM1.36108 8.68237L15.5675 8.68291L15.5676 6.68291L1.36115 6.68237L1.36108 8.68237Z" fill="white"/>
</svg>
