<?xml version="1.0" encoding="UTF-8"?><svg width="512" height="512" version="1.1" viewBox="0 0 512 512" xmlns="http://www.w3.org/2000/svg" xmlns:xlink="http://www.w3.org/1999/xlink"><!--Generated by IJSVG (https://github.com/iconjar/IJSVG)--><path d="M89,28c0,-2.481 -2.019,-4.5 -4.5,-4.5h-69c-2.481,0 -4.5,2.019 -4.5,4.5v44c0,0.692 0.17,1.342 0.451,1.928l-0.012,0.012l0.039,0.039c0.439,0.888 1.156,1.604 2.044,2.043l0.039,0.039l0.012,-0.012c0.586,0.281 1.235,0.451 1.927,0.451h69c0.692,0 1.342,-0.17 1.928,-0.451l0.012,0.012l0.039,-0.039c0.888,-0.438 1.604,-1.155 2.043,-2.043l0.039,-0.039l-0.012,-0.012c0.281,-0.586 0.451,-1.236 0.451,-1.928v-44Zm-31.575,23.675c-4.095,4.094 -10.755,4.092 -14.85,0l-25.175,-25.175h65.2l-25.175,25.175Zm-43.425,-23.675c0,-0.195 0.04,-0.379 0.108,-0.55l21.911,21.91l-22.019,22.019v-43.379Zm2.121,45.5l22.019,-22.019l2.314,2.314c2.632,2.632 6.088,3.947 9.546,3.947c3.457,0 6.914,-1.315 9.546,-3.947l2.314,-2.314l22.019,22.019h-67.758Zm47.86,-24.14l21.911,-21.911c0.068,0.171 0.108,0.356 0.108,0.551v43.379l-22.019,-22.019Z" transform="scale(5.12)" fill="#000"></path></svg>