<?xml version="1.0" encoding="UTF-8"?>
<svg id="Layer_2" data-name="Layer 2" xmlns="http://www.w3.org/2000/svg" viewBox="0 0 200 200">
  <g id="icon">
    <g>
      <path d="M143.33,200H56.67c-31.25,0-56.67-25.42-56.67-56.67V56.67C0,25.42,25.42,0,56.67,0h86.66c31.25,0,56.67,25.42,56.67,56.67v86.66c0,31.25-25.42,56.67-56.67,56.67ZM56.67,19.26c-20.63,0-37.41,16.78-37.41,37.41v86.66c0,20.63,16.78,37.41,37.41,37.41h86.66c20.63,0,37.41-16.78,37.41-37.41V56.67c0-20.63-16.78-37.41-37.41-37.41H56.67Z" style="fill: #fff; stroke-width: 0px;"/>
      <g>
        <path d="M100,152.13c-28.75,0-52.13-23.39-52.13-52.13s23.39-52.13,52.13-52.13,52.13,23.39,52.13,52.13-23.39,52.13-52.13,52.13ZM100,67.13c-18.13,0-32.87,14.75-32.87,32.87s14.75,32.87,32.87,32.87,32.87-14.75,32.87-32.87-14.75-32.87-32.87-32.87Z" style="fill: #fff; stroke-width: 0px;"/>
        <circle cx="153.23" cy="47.18" r="11.97" transform="translate(51.38 171) rotate(-67.67)" style="fill: #fff; stroke-width: 0px;"/>
      </g>
    </g>
  </g>
</svg>