<?xml version="1.0" encoding="UTF-8"?>
<svg id="Layer_2" data-name="Layer 2" xmlns="http://www.w3.org/2000/svg" viewBox="0 0 336.77 336.76">
  <g id="Standard">
    <g>
      <path d="M311.84,7.09c9.84,0,17.84,7.71,17.84,17.18v288.2c0,9.49-8,17.21-17.84,17.21H24.86c-9.8,0-17.77-7.72-17.77-17.21V24.27c0-9.47,7.97-17.18,17.77-17.18h286.99M311.84,0H24.86C11.14,0,0,10.87,0,24.27v288.2c0,13.41,11.14,24.3,24.86,24.3h286.99c13.74,0,24.93-10.88,24.93-24.3V24.27c0-13.4-11.19-24.27-24.93-24.27h0Z" style="fill: #fff; stroke-width: 0px;"/>
      <path d="M49.93,126.25h49.95v160.71h-49.95V126.25ZM74.92,46.36c15.97,0,28.94,12.98,28.94,28.95s-12.98,28.97-28.94,28.97-28.97-12.98-28.97-28.97,12.96-28.95,28.97-28.95" style="fill: #fff; stroke-width: 0px;"/>
      <path d="M131.21,126.25h47.91v21.96h.67c6.67-12.64,22.96-25.96,47.26-25.96,50.58,0,59.92,33.29,59.92,76.56v88.15h-49.92v-78.16c0-18.64-.34-42.61-25.96-42.61s-29.98,20.3-29.98,41.26v79.5h-49.91V126.25Z" style="fill: #fff; stroke-width: 0px;"/>
    </g>
  </g>
</svg>